<?xml version="1.0" encoding="iso-8859-1"?>
<!-- Uploaded to: SVG Repo, www.svgrepo.com, Generator: SVG Repo Mixer Tools -->
<!DOCTYPE svg PUBLIC "-//W3C//DTD SVG 1.1//EN" "http://www.w3.org/Graphics/SVG/1.1/DTD/svg11.dtd">
<svg fill="#ffffff" version="1.1" id="Capa_1" xmlns="http://www.w3.org/2000/svg" xmlns:xlink="http://www.w3.org/1999/xlink" 
	 width="20px" height="14px" viewBox="0 0 230.403 230.403"
	 xml:space="preserve">
<g>
	<path d="M38.22,34.682v20.735c0,1.935,1.567,3.504,3.504,3.504h41.684l0.228,48.405h-14.5c-3.992,0.007-7.236,3.256-7.236,7.243
		v12.479c0,1.372,0.406,2.646,1.075,3.743c-0.666,1.099-1.075,2.369-1.075,3.741v12.477c0,1.372,0.406,2.646,1.071,3.744
		c-0.662,1.095-1.071,2.361-1.071,3.737v12.477c0,1.373,0.406,2.643,1.075,3.74c-0.666,1.099-1.075,2.372-1.078,3.744v12.478
		c0,3.986,3.248,7.237,7.24,7.245c0.003,0,0.007,0,0.007,0h14.512v0.787c-0.173,0.414-0.264,0.865-0.264,1.341v30.598
		c0,1.934,1.565,3.504,3.504,3.504h41.961c1.937,0,3.504-1.57,3.504-3.504v-35.604c0.195,0.257,0.38,0.518,0.612,0.746
		c1.369,1.373,3.193,2.129,5.134,2.129h18.732c3.792,0,6.872-2.93,7.19-6.636c0.314,3.706,3.398,6.636,7.187,6.636h13.706
		c0.003,0,0.021,0,0.023,0c3.994,0,7.231-3.248,7.231-7.245l0.007-72.348c0-1.935-0.753-3.75-2.122-5.121
		c-1.369-1.369-3.183-2.124-5.123-2.124h-13.733c-1.937,0-3.754,0.754-5.119,2.124c-1.061,1.062-1.738,2.4-1.995,3.845V94.546
		c0-0.277-0.018-0.553-0.048-0.83c0.223-2.348-0.712-4.671-2.522-6.203l-27.138-22.915c-0.212-0.177-0.63-0.525-1.499-0.833
		c0.075-0.291,0.195-0.579,0.195-0.885v-3.956h41.979c1.938,0,3.505-1.569,3.505-3.504V3.504c0-1.934-1.567-3.504-3.505-3.504
		H82.564c-0.771,0-1.518,0.253-2.123,0.719l-40.84,31.178C38.729,32.562,38.22,33.592,38.22,34.682z M171.209,114.338l13.959,0.234
		v72.35c0,0.133-0.1,0.236-0.226,0.236l-13.97-0.236L171.209,114.338z M69.146,114.334h18.016l17.729,0.238l-0.239,12.715H87.166
		l-18.25-0.239L69.146,114.334z M69.14,167.207c-0.074,0-0.141,0.021-0.214,0.021l-0.017-0.261l0.234-12.71h18.141l17.595,0.233
		l-0.234,12.71L69.14,167.207z M68.912,147.009l0.234-12.713h18.016l17.729,0.236l-0.239,12.71l-35.505,0.007
		c-0.074,0-0.144,0.021-0.221,0.021L68.912,147.009z M69.146,190.669l-0.238-3.74l0.238-12.714h18.144l17.595,0.236l-0.238,12.714
		H87.166c-0.003,0-0.007,0-0.007,0H69.146V190.669z M90.399,223.396v-25.759c0.171-0.414,0.264-0.862,0.264-1.335v-2.128h13.981
		c3.999,0,7.246-3.252,7.246-7.245v-12.48c0-0.616-0.097-1.198-0.241-1.772c-0.046-0.165-0.098-0.322-0.154-0.486
		c-0.14-0.425-0.315-0.821-0.525-1.212c-0.049-0.082-0.07-0.191-0.12-0.273c0.043-0.068,0.057-0.147,0.094-0.219
		c0.233-0.418,0.421-0.853,0.568-1.308c0.05-0.15,0.096-0.294,0.133-0.444c0.147-0.575,0.245-1.164,0.245-1.773l-0.003-12.477
		c0-0.612-0.098-1.201-0.245-1.77c-0.042-0.164-0.094-0.318-0.147-0.476c-0.14-0.432-0.318-0.832-0.529-1.219
		c-0.05-0.089-0.066-0.188-0.116-0.267c0.05-0.082,0.066-0.178,0.109-0.26c0.224-0.404,0.409-0.825,0.549-1.267
		c0.053-0.157,0.106-0.312,0.144-0.473c0.141-0.567,0.235-1.149,0.235-1.745l0.003-12.477c0-0.62-0.097-1.208-0.245-1.78
		c-0.042-0.164-0.094-0.314-0.147-0.472c-0.141-0.428-0.315-0.828-0.525-1.219c-0.053-0.085-0.073-0.191-0.123-0.28
		c0.053-0.086,0.073-0.191,0.123-0.277c0.21-0.383,0.382-0.783,0.519-1.201c0.057-0.164,0.108-0.321,0.154-0.489
		c0.144-0.571,0.242-1.153,0.242-1.77l0.003-12.475c0-0.486-0.051-0.963-0.144-1.422c-0.031-0.158-0.091-0.301-0.132-0.456
		c-0.08-0.294-0.159-0.592-0.273-0.872c-0.074-0.177-0.171-0.334-0.257-0.505c-0.118-0.238-0.234-0.481-0.378-0.705
		c-0.108-0.168-0.242-0.315-0.365-0.472c-0.126-0.163-0.234-0.341-0.375-0.491c0.196-0.046,0.375-0.14,0.568-0.2
		c0.057-0.014,0.104-0.038,0.158-0.057c0.375-0.125,0.749-0.258,1.1-0.445c0.448-0.228,0.876-0.501,1.268-0.83l12.29-10.379v125.653
		H90.399V223.396z M157.055,93.088c-0.093,0.488-0.085,0.974,0.024,1.458v92.376c0,0.137-0.104,0.239-0.24,0.239l-18.973-0.239
		l-0.006-91.627c0-1.03-0.452-2.01-1.239-2.676l-5.503-4.647c-0.014-0.007-0.294-0.241-0.301-0.251
		c-0.329-0.267-0.691-0.467-1.071-0.601c-0.154-0.055-0.315-0.048-0.476-0.081c-0.227-0.044-0.452-0.114-0.685-0.114
		c-0.004,0-0.007,0-0.007,0c-0.336,0-0.657,0.073-0.972,0.167c-0.072,0.021-0.144,0.014-0.213,0.04
		c-0.383,0.135-0.745,0.342-1.074,0.616l-18.115,14.991l-7.998-9.844c0-0.01,0.007-0.044,0.007-0.044l26.708-22.561
		c0.596-0.106,2.687-0.106,3.347,0.01L157.055,93.088z M126.067,61.272L95.663,87.517c-1.479,1.251-2.387,3-2.548,4.93
		c-0.161,1.928,0.438,3.805,1.686,5.282l8.047,9.53c0.021,0.022,0.041,0.046,0.059,0.067H90.645l-0.228-48.405h35.65V61.272z
		 M45.229,36.417l38.52-29.408h87.806v44.903h-41.979h-42.68H45.229V36.417z"/>
</g>
</svg>